<svg id="Grupo_452" data-name="Grupo 452" xmlns="http://www.w3.org/2000/svg" width="1923.881" height="537.218" viewBox="0 0 1923.881 537.218">
  <rect id="Rectángulo_32" data-name="Rectángulo 32" width="26" height="13" transform="matrix(0.946, 0.326, -0.326, 0.946, 1379.824, 5.122)" fill="#ff5700"/>
  <rect id="Rectángulo_35" data-name="Rectángulo 35" width="18" height="36" transform="translate(1507.593 3.923) rotate(8)" fill="#ff5700"/>
  <path id="Trazado_146" data-name="Trazado 146" d="M960,0h0V177.127H0Z" transform="translate(960 360.091)" fill="#090909"/>
  <path id="Trazado_143" data-name="Trazado 143" d="M0,0,1920,195.547v196.01l-184.2,27.869-118.861,19.74-62.487,11.051s-54.137,7.528-73.542,7.528c-39.594,0-484.628,79.473-523.992,79.473H0Z" fill="#ff4500"/>
  <path id="Trazado_4" data-name="Trazado 4" d="M0,540" transform="translate(0 -138.185)" fill="none" stroke="#707070" stroke-width="1"/>
  <text id="_" data-name="
" transform="translate(960 111)" fill="#fff" font-size="30" font-family="FranklinGothic-Medium, Franklin Gothic" font-weight="500" letter-spacing="0.003em"><tspan x="0.045" y="0"></tspan><tspan x="0" y="34"></tspan></text>
  <path id="Trazado_140" data-name="Trazado 140" d="M788.348-8.127c52.827,40.636,36.573,38.6,55.875,44.7,7.509,2.371,17.631-2.79,27.585-10.2,15.1-11.236,29.476-27.785,31.338-28.406,3.048-1.016,65.018,37.589,65.018,37.589L1040.294,0s46.732,32.509,49.78,32.509,75.177-33.525,75.177-33.525l53.843,31.493" transform="translate(-755 88.887)" fill="none" stroke="#160a0a" stroke-width="15"/>
  <path id="Trazado_141" data-name="Trazado 141" d="M788.348-8.127c52.827,40.636,36.573,38.6,55.875,44.7,7.509,2.371,17.631-2.79,27.585-10.2,15.1-11.236,29.476-27.785,31.338-28.406,3.048-1.016,65.018,37.589,65.018,37.589L1040.294,0s46.732,32.509,49.78,32.509,75.177-33.525,75.177-33.525l53.843,31.493" transform="translate(701 385.414)" fill="none"/>
  <rect id="Rectángulo_26" data-name="Rectángulo 26" width="76" height="18" transform="matrix(0.819, 0.574, -0.574, 0.819, 1180.034, 30.832)" fill="#ff5700"/>
  <rect id="Rectángulo_27" data-name="Rectángulo 27" width="49" height="19" transform="matrix(0.985, 0.174, -0.174, 0.985, 1059.022, 17.89)" fill="#ff5700"/>
  <rect id="Rectángulo_28" data-name="Rectángulo 28" width="46" height="14" transform="translate(965.197 51.376) rotate(-25)" fill="#ff5700"/>
  <rect id="Rectángulo_29" data-name="Rectángulo 29" width="17" height="60" transform="matrix(0.966, -0.259, 0.259, 0.966, 898.525, 12.222)" fill="#ff5700"/>
  <path id="Trazado_144" data-name="Trazado 144" d="M0,0H21V55H0V0Z" transform="matrix(0.819, 0.574, -0.574, 0.819, 732.672, 3.951)" fill="#ff5700"/>
  <rect id="Rectángulo_33" data-name="Rectángulo 33" width="13" height="49" transform="matrix(0.985, -0.174, 0.174, 0.985, 1385.844, 70.501)" fill="#ff5700"/>
  <rect id="Rectángulo_34" data-name="Rectángulo 34" width="67" height="21" transform="matrix(0.875, 0.485, -0.485, 0.875, 1485.291, 65.075)" fill="#ff5700"/>
  <rect id="Rectángulo_36" data-name="Rectángulo 36" width="18" height="55" transform="translate(1611.537 9.428) rotate(-19)" fill="#ff5700"/>
  <path id="Trazado_145" data-name="Trazado 145" d="M0,0H21V55H0V0Z" transform="matrix(0.899, -0.438, 0.438, 0.899, 799.007, 28.386)" fill="#ff5700"/>
  <rect id="Rectángulo_37" data-name="Rectángulo 37" width="17" height="39" transform="matrix(0.966, -0.259, 0.259, 0.966, 1264.243, 428.083)" fill="#fff"/>
  <path id="Trazado_149" data-name="Trazado 149" d="M0,0H44V21H0Z" transform="translate(1150.313 511.494) rotate(-69)" fill="#fff"/>
  <rect id="Rectángulo_39" data-name="Rectángulo 39" width="72" height="21" transform="matrix(0.819, -0.574, 0.574, 0.819, 1304.488, 506.766)" fill="#fff"/>
  <rect id="Rectángulo_40" data-name="Rectángulo 40" width="27" height="17" transform="translate(1255.857 483.309) rotate(25)" fill="#fff"/>
  <rect id="Rectángulo_41" data-name="Rectángulo 41" width="21" height="37" transform="translate(1371.05 434.096) rotate(-17)" fill="#fff"/>
  <rect id="Rectángulo_42" data-name="Rectángulo 42" width="22" height="75" transform="translate(1420.705 448.98) rotate(-45)" fill="#fff"/>
  <ellipse id="Elipse_2" data-name="Elipse 2" cx="13.5" cy="11.5" rx="13.5" ry="11.5" transform="translate(1820 50)" fill="#ffe923"/>
  <ellipse id="Elipse_3" data-name="Elipse 3" cx="9.5" cy="9" rx="9.5" ry="9" transform="translate(1795 93)" fill="#101010"/>
  <ellipse id="Elipse_4" data-name="Elipse 4" cx="17" cy="17.5" rx="17" ry="17.5" transform="translate(1700 27)" fill="#101010"/>
  <ellipse id="Elipse_5" data-name="Elipse 5" cx="7" cy="6" rx="7" ry="6" transform="translate(1876 144)" fill="#101010"/>
  <ellipse id="Elipse_6" data-name="Elipse 6" cx="16" cy="16.5" rx="16" ry="16.5" transform="translate(1877 27)" fill="#101010"/>
  <ellipse id="Elipse_7" data-name="Elipse 7" cx="13.5" cy="12.5" rx="13.5" ry="12.5" transform="translate(1694 149)" fill="#101010"/>
  <ellipse id="Elipse_8" data-name="Elipse 8" cx="13.5" cy="12.5" rx="13.5" ry="12.5" transform="translate(1721 92)" fill="#ffe923"/>
  <ellipse id="Elipse_9" data-name="Elipse 9" cx="17" cy="17.5" rx="17" ry="17.5" transform="translate(1808 170)" fill="#ffe923"/>
  <path id="Trazado_139" data-name="Trazado 139" d="M788.348-8.127c52.827,40.636,36.573,38.6,55.875,44.7,7.509,2.371,17.631-2.79,27.585-10.2,15.1-11.236,29.476-27.785,31.338-28.406,3.048-1.016,65.018,37.589,65.018,37.589L1040.294,0s46.732,32.509,49.78,32.509c1.926,0,31.445-13.391,53.146-23.355,12.263-5.63,22.031-10.171,22.031-10.171l30.4,17.781,23.443,13.712" transform="translate(-750 31.627)" fill="none" stroke="#160a0a" stroke-width="15"/>
  <path id="Trazado_147" data-name="Trazado 147" d="M788.348-8.127c52.827,40.636,36.573,38.6,55.875,44.7,7.509,2.371,17.631-2.79,27.585-10.2,15.1-11.236,29.476-27.785,31.338-28.406,3.048-1.016,65.018,37.589,65.018,37.589L1040.294,0s46.732,32.509,49.78,32.509,75.177-33.525,75.177-33.525l53.843,31.493" transform="translate(701 401.066)" fill="none" stroke="#fff" stroke-width="15"/>
  <path id="Trazado_148" data-name="Trazado 148" d="M788.348-8.127c52.827,40.636,36.573,38.6,55.875,44.7,7.509,2.371,17.631-2.79,27.585-10.2,15.1-11.236,29.476-27.785,31.338-28.406,3.048-1.016,65.018,37.589,65.018,37.589L1040.294,0s46.732,32.509,49.78,32.509,75.177-33.525,75.177-33.525l53.843,31.493" transform="translate(701 340.196)" fill="none" stroke="#fff" stroke-width="15"/>
  <text id="CICLO_PRE_ULIMA_2020-1" data-name="CICLO PRE ULIMA
2020-1" transform="translate(469 246)" fill="#fff" font-size="70" font-family="SegoeUI-Bold, Segoe UI" letter-spacing="0.003em" font-weight="700"><tspan x="-294.492" y="0">CICLO PRE ULIMA</tspan><tspan x="-115.335" y="94">2020-1</tspan></text>
  <text id="_Prepárate_ahora_" data-name="¡Prepárate ahora!" transform="translate(464 420)" fill="#090909" font-size="55" font-family="Arial-BoldMT, Arial" font-weight="700" letter-spacing="0.003em"><tspan x="-229.041" y="0">¡Prepárate ahora!</tspan></text>
</svg>
