<svg id="laptop" xmlns="http://www.w3.org/2000/svg" width="710.523" height="415.475" viewBox="0 0 710.523 415.475">
  <path id="Trazado_201" data-name="Trazado 201" d="M0,229.3Z" transform="translate(0 -21.566)" fill="#5dc7dd"/>
  <path id="Trazado_202" data-name="Trazado 202" d="M11.256,296H701.677v23.316a23.553,23.553,0,0,1-23.655,23.316H34.9a23.556,23.556,0,0,1-23.655-23.316V296Z" transform="translate(8.846 72.844)" fill="#545252"/>
  <path id="Trazado_203" data-name="Trazado 203" d="M151.549,296H340.731v6.854a6.922,6.922,0,0,1-6.954,6.854H158.5a6.927,6.927,0,0,1-6.954-6.854V296Z" transform="translate(119.169 72.844)" fill="#666"/>
  <path id="Trazado_204" data-name="Trazado 204" d="M53.975,86.518H611.211a12.322,12.322,0,0,1,12.371,12.193V435.234a12.317,12.317,0,0,1-12.371,12.193H53.975A12.322,12.322,0,0,1,41.6,435.234V98.711A12.316,12.316,0,0,1,53.975,86.518Z" transform="translate(32.717 -86.518)" fill="#545252"/>
  <path id="Trazado_205" data-name="Trazado 205" d="M56.163,100.424H586.258V418.848H56.163Z" transform="translate(44.165 -75.939)" fill="#fff"/>
  <path id="Trazado_206" data-name="Trazado 206" d="M76.271,122.089H378.211V312.051H76.271Z" transform="translate(59.977 -59.457)" fill="#ecf0f1"/>
  <g id="Grupo_156" data-name="Grupo 156" transform="translate(460.519 62.632)">
    <path id="Trazado_207" data-name="Trazado 207" d="M257.8,161.686h71.8v45.176H257.8V161.686Z" transform="translate(-257.796 -91.966)" fill="#f8730e"/>
    <path id="Trazado_208" data-name="Trazado 208" d="M257.8,122.089h71.8v45.169H257.8V122.089Z" transform="translate(-257.796 -122.089)" fill="#f8730e"/>
    <path id="Trazado_209" data-name="Trazado 209" d="M257.8,201.282h71.8v45.169H257.8V201.282Z" transform="translate(-257.796 -61.843)" fill="#f8730e"/>
  </g>
  <g id="Grupo_157" data-name="Grupo 157" transform="translate(487.258 73.254)">
    <path id="Trazado_210" data-name="Trazado 210" d="M272.765,128.122l18.317,11.972-18.317,11.972V128.122Z" transform="translate(-272.765 -128.122)" fill="#fff"/>
    <path id="Trazado_211" data-name="Trazado 211" d="M272.765,167.715l18.317,11.972L272.765,191.66V167.715Z" transform="translate(-272.765 -98.001)" fill="#fff"/>
    <path id="Trazado_212" data-name="Trazado 212" d="M272.765,207.312l18.317,11.972-18.317,11.972V207.312Z" transform="translate(-272.765 -67.878)" fill="#fff"/>
  </g>
  <path id="Trazado_213" data-name="Trazado 213" d="M56.163,100.427H110.15v20H56.163Z" transform="translate(44.165 -75.936)" fill="#f8730e"/>
  <path id="Trazado_214" data-name="Trazado 214" d="M159.149,180.85h34.492l2.794,28.655,4.956,3.924,10.467,6.561L191.512,267.35H161.265l-20.333-47.359,10.46-6.561,4.963-3.924Z" transform="translate(110.824 -14.755)" fill="#f0b97d"/>
  <path id="Trazado_215" data-name="Trazado 215" d="M157.345,200.559l-28.586,8.991,31.393,42.812h47.073l27.418-45.43-20.2-6.314-17.782,12.376H175.336l-17.993-12.441v.006Z" transform="translate(101.252 0.234)" fill="#f1f1f1"/>
  <path id="Trazado_216" data-name="Trazado 216" d="M157.355,207.083l2.446,5.944-2.776,34.561h13.425l-2.776-34.561,2.446-5.944-6.387-.248-6.387.248Z" transform="translate(123.48 5.013)" fill="#ff5b61"/>
  <path id="Trazado_217" data-name="Trazado 217" d="M172.441,200.47l-50.56,15.9s-6.544,3.352-8.515,13.552c-1.357,6.991-2.24,14.091-3.184,22.5h79.969l-17.711-51.959Zm118.527,51.959h0c-.942-8.407-1.832-15.507-3.184-22.5-1.971-10.2-8.515-13.552-8.515-13.552l-50.223-15.689-17.9,51.744h79.824Z" transform="translate(86.644 0.167)" fill="#15bdb1"/>
  <path id="Trazado_218" data-name="Trazado 218" d="M150.759,200.467,139.851,203.9l-2.1,27.273s.579,2.241,2.307,2.039l9.846,3.644a1.106,1.106,0,0,1,.066,1.442l-8.416,5.691,4.541,8.439h22.37Zm60.927,51.959h0l4.541-8.439L207.8,238.3a1.106,1.106,0,0,1,.066-1.442l9.841-3.644c1.734.2,2.313-2.039,2.313-2.039l-2.089-27.181-10.573-3.307-17.9,51.745h22.227Z" transform="translate(108.326 0.169)" fill="#20d0c2"/>
  <path id="Trazado_219" data-name="Trazado 219" d="M141.057,161.411c0,2.664-.989,5.262-.909,7.829-9.241-1.7-4.779,25.368.448,29.084.415.3,1.437-.364,2.3-.9,1.812,9.953,17.3,36.543,27.134,47.736,2.728,3.106,19.443,3.054,22.153.117,10.077-10.94,25.54-37.841,27.366-47.853.863.539,1.885,1.2,2.307.9,5.227-3.716,9.689-30.774.448-29.084.073-2.56-.916-5.165-.916-7.829-.508-21.009-19.825-31.5-40.166-31.592C160.889,129.909,141.57,140.4,141.057,161.411Z" transform="translate(106 -53.577)" fill="#fed198"/>
  <path id="Trazado_220" data-name="Trazado 220" d="M152.061,138.806c-2.914-.332-13.445,2.845-14.7,13.825a138.074,138.074,0,0,0-.665,21.094s6.169,1.54,6.947,7.77.217,6.237.217,6.237l2.228-.494,1.6-10.687c9.227-5.7-.066-14.136,9.161-16.117,24.927,17.514,46.921,14.513,56.84,6.276,0,0-2.313,8.621-.527,11.687s.718,7.913.718,7.913l2.32-.111s-.422-12.687,4.732-12.629C240.478,141.743,178.576,102.212,152.061,138.806Z" transform="translate(107.381 -57.906)" fill="#666"/>
  <g id="Grupo_158" data-name="Grupo 158" transform="translate(258.504 190.657)">
    <path id="Trazado_221" data-name="Trazado 221" d="M153.153,194.8c.718.052-8.444,10.245-8.444,10.245l7.8,26.323,20.913-15.378C161.926,210.424,155.058,203.219,153.153,194.8Z" transform="translate(-144.709 -194.8)" fill="#fff"/>
    <path id="Trazado_222" data-name="Trazado 222" d="M181.062,194.8c-.718.052,8.444,10.245,8.444,10.245l-7.8,26.323-20.92-15.378c11.507-5.567,18.376-12.773,20.273-21.191Z" transform="translate(-132.07 -194.8)" fill="#fff"/>
  </g>
  <path id="Trazado_224" data-name="Trazado 224" d="M76.271,243.392H378.211V229.976H76.271Z" transform="translate(59.977 22.618)" fill="#f8730e"/>
  <path id="Trazado_225" data-name="Trazado 225" d="M90.32,215.919a31.466,31.466,0,1,1-31.913,31.463A31.692,31.692,0,0,1,90.32,215.919Z" transform="translate(45.929 11.924)" fill="#ecf0f1"/>
  <path id="Trazado_226" data-name="Trazado 226" d="M89.406,217.082A29.416,29.416,0,1,1,59.569,246.5,29.63,29.63,0,0,1,89.406,217.082Z" transform="translate(46.843 12.808)" fill="#f8730e"/>
  <path id="Trazado_227" data-name="Trazado 227" d="M70,223.774l26.977,17.631L70,259.036Z" transform="translate(55.045 17.899)" fill="#fff"/>
  <g id="Grupo_159" data-name="Grupo 159" transform="translate(184.93 63.483)">
    <path id="Trazado_228" data-name="Trazado 228" d="M192.6,243.392h94.132V229.976H192.6Z" transform="translate(-33.474 -40.865)" fill="#c8cacc"/>
    <path id="Trazado_229" data-name="Trazado 229" d="M103.523,250.93H317.15v6.633H103.523Zm0,20.178h130.4v6.633h-130.4Z" transform="translate(-103.523 -24.924)" fill="#c8cacc"/>
    <path id="Trazado_230" data-name="Trazado 230" d="M306.565,122.572h63.643v6.633H306.565Zm0,14.468h38.847v6.633H306.565Z" transform="translate(56.144 -122.572)" fill="#c8cacc"/>
    <path id="Trazado_231" data-name="Trazado 231" d="M306.565,160.362h63.643v6.633H306.565Zm0,14.468h38.847v6.633H306.565Z" transform="translate(56.144 -93.824)" fill="#c8cacc"/>
    <path id="Trazado_232" data-name="Trazado 232" d="M306.565,201.552h63.643v6.633H306.565Zm0,14.468h38.847v6.633H306.565Z" transform="translate(56.144 -62.488)" fill="#c8cacc"/>
  </g>
  <path id="Trazado_233" data-name="Trazado 233" d="M257.8,240.558h71.8v45.169H257.8V240.558Z" transform="translate(202.723 30.668)" fill="#f8730e"/>
  <path id="Trazado_234" data-name="Trazado 234" d="M272.765,246.587l18.317,11.972-18.317,11.972V246.587Z" transform="translate(214.494 35.254)" fill="#fff"/>
  <path id="Trazado_235" data-name="Trazado 235" d="M306.565,240.828h63.643v6.633H306.565Zm0,14.475h38.847v6.633H306.565Z" transform="translate(241.074 30.873)" fill="#c8cacc"/>
  <path id="Trazado_236" data-name="Trazado 236" d="M562.492,100.427H86.384v20H562.492Z" transform="translate(67.93 -75.936)" fill="#ecf0f1"/>
  <path id="Trazado_237" data-name="Trazado 237" d="M83.093,291.49h38.545v7.939H83.093Zm395.21,0h38.545v7.939H478.3Z" transform="translate(65.342 69.414)" fill="#666"/>
</svg>
