<svg xmlns="http://www.w3.org/2000/svg" width="63.083" height="53" viewBox="0 0 63.083 53">
  <g id="icon01" transform="translate(1.583 1.5)">
    <path id="Trazado_13" data-name="Trazado 13" d="M1051.2,949.915h-12.523v9.13h-15.914V968.7h-14.609v4.435" transform="translate(-991.718 -923.132)" fill="rgba(255,255,255,0)" stroke="#fa7819" stroke-linecap="round" stroke-linejoin="round" stroke-miterlimit="50" stroke-width="3"/>
    <path id="Trazado_14" data-name="Trazado 14" d="M1010.148,869.046a3.149,3.149,0,0,1-3.133,3.13,3.143,3.143,0,0,1,0-6.261A3.15,3.15,0,0,1,1010.148,869.046Z" transform="translate(-990.156 -865.915)" fill="rgba(255,255,255,0)" stroke="#1a1a1a" stroke-linecap="round" stroke-linejoin="round" stroke-miterlimit="50" stroke-width="3"/>
    <path id="Trazado_15" data-name="Trazado 15" d="M1150.141,925.915l6.531,6.261-5.75,6" transform="translate(-1096.672 -907.944)" fill="rgba(255,255,255,0)" stroke="#fa7819" stroke-linecap="round" stroke-linejoin="round" stroke-miterlimit="50" stroke-width="3"/>
    <path id="Trazado_16" data-name="Trazado 16" d="M967.953,893.122c1.852.9,3.656,4.223,3.656,4.223l1.563,2.413,4.961-4.524a1.448,1.448,0,0,1,2.086.3c1.023,1.184,1.2,2.339.516,3.016s-6.25,6.334-6.25,6.334-2.617,1.2-4.18-.6l-1.562-1.81-2.875,6.334,7.3,3.921,2.617,11.763s.836,2.528-1.3,3.318c-2.156.79-2.875-1.81-2.875-1.81l-2.352-9.953-9.906-6.334s-1.734-3.7-.266-6.636,2.609-5.429,2.609-5.429l-2.875-.3-3.391,5.128s-.875,1.92-2.344.9-.266-4.223-.266-4.223l3.922-7.239Z" transform="translate(-952.36 -885.132)" fill="rgba(255,255,255,0)" stroke="#1a1a1a" stroke-linecap="round" stroke-linejoin="round" stroke-miterlimit="50" stroke-width="3"/>
    <path id="Trazado_17" data-name="Trazado 17" d="M959.75,954.915l3.656,1.826-6.781,14.87a1.711,1.711,0,0,1-2.609.783c-2.117-1.15-1.3-2.609-1.3-2.609Z" transform="translate(-952.506 -926.828)" fill="rgba(255,255,255,0)" stroke="#1a1a1a" stroke-linecap="round" stroke-linejoin="round" stroke-miterlimit="50" stroke-width="3"/>
  </g>
</svg>
