<svg xmlns="http://www.w3.org/2000/svg" xmlns:xlink="http://www.w3.org/1999/xlink" width="60" height="60" viewBox="0 0 60 60">
  <defs>
    <clipPath id="clip-path">
      <rect id="Rectángulo_4" data-name="Rectángulo 4" width="60" height="60" transform="translate(418 2675)" fill="#fff" stroke="#707070" stroke-width="3"/>
    </clipPath>
  </defs>
  <g id="Enmascarar_grupo_4" data-name="Enmascarar grupo 4" transform="translate(-418 -2675)" clip-path="url(#clip-path)">
    <g id="icon04" transform="translate(419.435 2676.435)">
      <path id="Trazado_33" data-name="Trazado 33" d="M1244.444,2003.216a25.565,25.565,0,1,1-25.565-25.565A25.514,25.514,0,0,1,1244.444,2003.216Z" transform="translate(-1192.531 -1971.912)" fill="rgba(255,255,255,0)" stroke="#1a1a1a" stroke-linecap="round" stroke-linejoin="round" stroke-miterlimit="50" stroke-width="3"/>
      <path id="Trazado_34" data-name="Trazado 34" d="M1258.574,2024.651a18.167,18.167,0,0,1-18.261,18,18,18,0,0,1,0-36A18.166,18.166,0,0,1,1258.574,2024.651Z" transform="translate(-1213.966 -1993.347)" fill="rgba(255,255,255,0)" stroke="#fa7819" stroke-linecap="round" stroke-linejoin="round" stroke-miterlimit="50" stroke-width="3"/>
      <path id="Trazado_35" data-name="Trazado 35" d="M1272.444,2046.086a10.789,10.789,0,0,1-10.7,10.7,10.567,10.567,0,0,1-10.435-10.7,10.344,10.344,0,0,1,10.435-10.435A10.567,10.567,0,0,1,1272.444,2046.086Z" transform="translate(-1235.4 -2014.781)" fill="rgba(255,255,255,0)" stroke="#1a1a1a" stroke-linecap="round" stroke-linejoin="round" stroke-miterlimit="50" stroke-width="3"/>
      <path id="Trazado_36" data-name="Trazado 36" d="M1287.27,2069a2.576,2.576,0,0,1-2.609,2.348,2.341,2.341,0,0,1-2.348-2.348,2.273,2.273,0,0,1,2.348-2.348A2.5,2.5,0,0,1,1287.27,2069Z" transform="translate(-1258.313 -2037.694)" fill="rgba(255,255,255,0)" stroke="#fa7819" stroke-linecap="round" stroke-linejoin="round" stroke-miterlimit="50" stroke-width="3"/>
      <path id="Trazado_37" data-name="Trazado 37" d="M1361.313,2144.651l7.3,7.3" transform="translate(-1316.705 -2095.346)" fill="rgba(255,255,255,0)" stroke="#1a1a1a" stroke-linecap="round" stroke-linejoin="round" stroke-miterlimit="50" stroke-width="3"/>
      <path id="Trazado_38" data-name="Trazado 38" d="M1197.879,2144.651l-7.565,7.3" transform="translate(-1190.313 -2095.346)" fill="rgba(255,255,255,0)" stroke="#1a1a1a" stroke-linecap="round" stroke-linejoin="round" stroke-miterlimit="50" stroke-width="3"/>
      <path id="Trazado_39" data-name="Trazado 39" d="M1304.335,1976.151l1.826,8.87-14.348,14.609h3.13a1.319,1.319,0,0,0,1.043.522,1.135,1.135,0,0,0,1.043-.261l12.522-13.3,7.565,1.826Z" transform="translate(-1265.335 -1970.803)" fill="#fff"/>
      <path id="Trazado_40" data-name="Trazado 40" d="M1291.313,2004.694l25.044-25.043" transform="translate(-1264.966 -1973.39)" fill="rgba(255,255,255,0)" stroke="#1a1a1a" stroke-linecap="round" stroke-linejoin="round" stroke-miterlimit="50" stroke-width="3"/>
      <path id="Trazado_41" data-name="Trazado 41" d="M1347.879,1971.042l-1.565-7.043,7.565-8.348,1.3,7.565" transform="translate(-1305.618 -1955.651)" fill="rgba(255,255,255,0)" stroke="#1a1a1a" stroke-linecap="round" stroke-linejoin="round" stroke-miterlimit="50" stroke-width="3"/>
      <path id="Trazado_42" data-name="Trazado 42" d="M1352.313,1993.955l7.043,1.565,8.087-7.565-7.3-1.3" transform="translate(-1310.053 -1978.564)" fill="rgba(255,255,255,0)" stroke="#1a1a1a" stroke-linecap="round" stroke-linejoin="round" stroke-miterlimit="50" stroke-width="3"/>
    </g>
  </g>
</svg>
