<svg xmlns="http://www.w3.org/2000/svg" xmlns:xlink="http://www.w3.org/1999/xlink" width="106" height="106" viewBox="0 0 106 106"><defs><clipPath id="a"><rect width="106" height="106" transform="translate(1622 1196)" fill="#fff" stroke="#707070" stroke-width="1"/></clipPath></defs><g transform="translate(-1622 -1196)" clip-path="url(#a)"><g transform="translate(1622 1196)"><path d="M21.753,22.964h6.216v6.211H21.753Z" fill="#ff4900"/><path d="M34.185,22.964H84.247v6.211H34.185Z" fill="#ff4900"/><path d="M21.753,35.4h6.216v6.211H21.753Z" fill="#ff4900"/><path d="M34.185,35.4H84.247v6.211H34.185Z" fill="#ff4900"/><path d="M21.753,47.828h6.216v6.211H21.753Z" fill="#ff4900"/><path d="M34.185,47.828H84.247v6.211H34.185Z" fill="#ff4900"/><path d="M106,84.072V7.424H0V84.072H38.5v8.293H26.064v6.211H79.935V92.365H67.5V84.072ZM99.789,13.635V63.367H6.211V13.635ZM6.211,69.578H99.789v8.283H6.211ZM61.29,92.365H44.71V84.072H61.29Z" fill="#ff4900"/></g></g></svg>