<svg xmlns="http://www.w3.org/2000/svg" xmlns:xlink="http://www.w3.org/1999/xlink" width="106" height="106" viewBox="0 0 106 106"><defs><clipPath id="a"><rect width="106" height="106" transform="translate(1374 1744)" fill="#ff4900" stroke="#707070" stroke-width="1"/></clipPath></defs><g transform="translate(-1374 -1744)" clip-path="url(#a)"><g transform="translate(1374 1744)"><path d="M103.265,33.358a9.328,9.328,0,0,0-13.176,0L80.746,42.71V18.1a9.255,9.255,0,0,0-2.729-6.588L69.234,2.729A9.255,9.255,0,0,0,62.646,0H9.32A9.327,9.327,0,0,0,0,9.316V96.684A9.327,9.327,0,0,0,9.32,106H71.43a9.327,9.327,0,0,0,9.316-9.316V69.072l22.519-22.538A9.311,9.311,0,0,0,103.265,33.358ZM62.113,6.211a3.389,3.389,0,0,1,2.729.909L73.625,15.9a3.389,3.389,0,0,1,.91,2.729H62.113ZM74.535,96.684a3.109,3.109,0,0,1-3.105,3.105H9.32a3.109,3.109,0,0,1-3.105-3.105V9.316A3.109,3.109,0,0,1,9.32,6.211H55.9V21.738a3.106,3.106,0,0,0,3.105,3.105H74.535V48.926L65.373,58.1l-4.39,4.39a3.105,3.105,0,0,0-.75,1.214L55.841,76.875A3.106,3.106,0,0,0,59.769,80.8l13.175-4.392a3.1,3.1,0,0,0,1.214-.75l.377-.377Zm-6.965-32,4.392,4.392-1.678,1.678-6.588,2.2,2.2-6.588Zm8.783,0-4.392-4.392L86.889,45.349l4.392,4.392ZM98.873,42.143l-3.2,3.2-4.392-4.392,3.2-3.205a3.105,3.105,0,1,1,4.391,4.393Z" fill="#ff4900"/><path d="M59.008,31.055H15.531a3.105,3.105,0,0,0,0,6.211H59.008a3.105,3.105,0,0,0,0-6.211Z" fill="#ff4900"/><path d="M46.586,43.477H15.531a3.105,3.105,0,0,0,0,6.211H46.586a3.105,3.105,0,0,0,0-6.211Z" fill="#ff4900"/><path d="M46.586,55.9H15.531a3.105,3.105,0,0,0,0,6.211H46.586a3.105,3.105,0,0,0,0-6.211Z" fill="#ff4900"/><path d="M46.586,68.32H15.531a3.105,3.105,0,0,0,0,6.211H46.586a3.105,3.105,0,0,0,0-6.211Z" fill="#ff4900"/><path d="M59.008,87.367H40.375a3.105,3.105,0,1,0,0,6.211H59.008a3.105,3.105,0,0,0,0-6.211Z" fill="#ff4900"/></g></g></svg>