<svg xmlns="http://www.w3.org/2000/svg" xmlns:xlink="http://www.w3.org/1999/xlink" width="106" height="106" viewBox="0 0 106 106"><defs><clipPath id="a"><rect width="106" height="106" transform="translate(907 1744)" fill="#ff4900" stroke="#707070" stroke-width="1"/></clipPath></defs><g transform="translate(-907 -1744)" clip-path="url(#a)"><path d="M82.465,106H67.676a2.425,2.425,0,0,1,0-4.851h4.969V96.581H50.083a2.426,2.426,0,0,1-2.425-2.425V62.821A2.426,2.426,0,0,1,50.083,60.4h49.974a2.426,2.426,0,0,1,2.425,2.425V94.155a2.426,2.426,0,0,1-2.425,2.425H77.5v4.568h4.969a2.425,2.425,0,0,1,0,4.851Zm-7.356-14.27H97.632V65.246H52.508V91.729h22.6Zm-.039-3.364a2.426,2.426,0,0,1-2.425-2.425v-.864a2.425,2.425,0,0,1,4.851,0v.864A2.426,2.426,0,0,1,75.07,88.365ZM39.989,87H5.942a2.425,2.425,0,1,1,0-4.851H39.989a2.425,2.425,0,1,1,0,4.851ZM81.522,84.64a2.416,2.416,0,0,1-1.211-.326l-.749-.433a2.426,2.426,0,0,1,2.427-4.2l.749.433a2.426,2.426,0,0,1-1.216,4.526Zm-12.9,0A2.426,2.426,0,0,1,67.4,80.113l.749-.432a2.426,2.426,0,1,1,2.425,4.2l-.749.432A2.415,2.415,0,0,1,68.619,84.639Zm.744-7.02a2.416,2.416,0,0,1-1.21-.325l-.749-.432a2.425,2.425,0,1,1,2.424-4.2l.749.432a2.426,2.426,0,0,1-1.214,4.527Zm11.414,0a2.426,2.426,0,0,1-1.215-4.526l.749-.432a2.425,2.425,0,1,1,2.426,4.2l-.749.432A2.415,2.415,0,0,1,80.777,77.619ZM10.336,77.4a2.427,2.427,0,0,1-2.247-3.338l7.7-18.975c2.388-5.885,4.912-10.054,7.943-13.122a20.1,20.1,0,0,1,14.8-6.143H48.738c9.2,0,16.106,5.1,21.126,15.595a2.426,2.426,0,1,1-4.376,2.093C62.412,47.083,58.855,43.234,54.34,41.6L45.591,53.588a2.425,2.425,0,0,1-3.918,0L32.922,41.6c-5.218,1.888-9.165,6.757-12.639,15.317l-7.7,18.974A2.427,2.427,0,0,1,10.336,77.4ZM38.256,40.677l5.375,7.366,5.375-7.366-.269,0H38.526ZM75.07,74.326A2.426,2.426,0,0,1,72.644,71.9v-.865a2.425,2.425,0,1,1,4.851,0V71.9A2.426,2.426,0,0,1,75.07,74.326ZM43.631,29.981A14.992,14.992,0,0,1,39.439.6l.084-.025a14.933,14.933,0,0,1,2.5-.486h.012Q42.68.016,43.336,0h.1a.133.133,0,0,1,.022,0H43.7A14.933,14.933,0,0,1,58.548,13.5c0,.007,0,.015,0,.023q.07.724.071,1.467A15.008,15.008,0,0,1,43.631,29.981ZM38.426,6.292A10.139,10.139,0,1,0,53.641,16.613q-.475.03-.952.03A14.93,14.93,0,0,1,38.426,6.292Zm4.639-1.426a10.1,10.1,0,0,0,9.624,6.926q.281,0,.56-.015a10.159,10.159,0,0,0-9.535-6.926h-.1Q43.338,4.851,43.065,4.867Z" transform="translate(907 1744)" fill="#ff4900"/></g></svg>