<svg xmlns="http://www.w3.org/2000/svg" xmlns:xlink="http://www.w3.org/1999/xlink" width="106" height="106" viewBox="0 0 106 106"><defs><clipPath id="a"><rect width="106" height="106" transform="translate(452 1744)" fill="#ff4900" stroke="#707070" stroke-width="1"/></clipPath></defs><g transform="translate(-452 -1744)" clip-path="url(#a)"><path d="M102.895,79.831h-.221V66.084h.221a3.105,3.105,0,1,0,0-6.211H71.125A29.582,29.582,0,0,0,82.617,36.468,19.8,19.8,0,0,0,69.853,17.94a13.019,13.019,0,0,0,2.884-8.182V3.105A3.106,3.106,0,0,0,69.632,0H62.979A13.1,13.1,0,0,0,49.895,13.084v4.7c-.149-.044-.3-.091-.441-.142a19.833,19.833,0,0,0-26.07,18.83A29.583,29.583,0,0,0,34.875,59.874H26.39A13.076,13.076,0,0,0,15.263,79.831H13.084a13.084,13.084,0,1,0,0,26.169h76.5a3.105,3.105,0,0,0,0-6.211h-.221V86.042h13.526a3.105,3.105,0,0,0,0-6.211ZM56.105,13.084a6.881,6.881,0,0,1,6.873-6.873h3.547V9.758a6.881,6.881,0,0,1-6.873,6.873H56.105ZM29.594,36.461A13.616,13.616,0,0,1,43.23,22.846c4.114,0,4.915,1.578,9.77,1.578s5.637-1.578,9.77-1.578A13.616,13.616,0,0,1,76.406,36.461a23.406,23.406,0,1,1-46.811,0ZM83.158,99.789H13.084a6.873,6.873,0,0,1,0-13.747H83.157V99.789ZM26.39,79.831a6.873,6.873,0,0,1,0-13.747H96.463V79.831H26.39Z" transform="translate(452 1744)" fill="#ff4900"/></g></svg>