<svg xmlns="http://www.w3.org/2000/svg" xmlns:xlink="http://www.w3.org/1999/xlink" width="50" height="50" viewBox="0 0 50 50">
  <defs>
    <clipPath id="clip-path">
      <rect id="Rectángulo_71" data-name="Rectángulo 71" width="50" height="50" transform="translate(1567 291)" fill="#fff" stroke="#707070" stroke-width="1"/>
    </clipPath>
  </defs>
  <g id="Enmascarar_grupo_29" data-name="Enmascarar grupo 29" transform="translate(-1567 -291)" clip-path="url(#clip-path)">
    <g id="whatsapp-logo_icon-icons.com_57054" transform="translate(1567 291)">
      <path id="WhatsApp" d="M50,24.356A24.586,24.586,0,0,1,13.589,45.682L0,50,4.431,36.932A24.1,24.1,0,0,1,.908,24.356a24.547,24.547,0,0,1,49.092,0ZM25.454,3.879A20.58,20.58,0,0,0,4.818,24.356,20.262,20.262,0,0,0,8.749,36.362l-2.578,7.6L14.1,41.446A20.657,20.657,0,0,0,46.092,24.357,20.582,20.582,0,0,0,25.454,3.879ZM37.849,29.966c-.152-.248-.552-.4-1.153-.7s-3.561-1.743-4.111-1.942-.954-.3-1.354.3-1.554,1.942-1.906,2.34-.7.449-1.3.151a16.469,16.469,0,0,1-4.838-2.963,18,18,0,0,1-3.347-4.134c-.351-.6-.037-.92.264-1.217.271-.268.6-.7.9-1.046a4,4,0,0,0,.6-1,1.088,1.088,0,0,0-.05-1.046c-.15-.3-1.354-3.236-1.856-4.432s-1-1-1.353-1-.752-.05-1.153-.05a2.22,2.22,0,0,0-1.605.747,6.676,6.676,0,0,0-2.1,4.979c0,2.938,2.155,5.776,2.457,6.174S20.1,31.759,26.216,34.15s6.117,1.592,7.221,1.492S37,34.2,37.5,32.805A4.977,4.977,0,0,0,37.849,29.966Z" fill="#8a909b"/>
    </g>
  </g>
</svg>
