<svg xmlns="http://www.w3.org/2000/svg" xmlns:xlink="http://www.w3.org/1999/xlink" width="61" height="57" viewBox="0 0 61 57"><defs><style>.a{fill:#fff;stroke:#707070;}.b{clip-path:url(#a);}.c{fill:url(#b);}</style><clipPath id="a"><rect class="a" width="61" height="57" transform="translate(262 4791)"/></clipPath><linearGradient id="b" x1="0.5" y1="1" x2="0.5" gradientUnits="objectBoundingBox"><stop offset="0" stop-color="#199411"/><stop offset="1" stop-color="#199411"/></linearGradient></defs><g class="b" transform="translate(-262 -4791)"><g transform="translate(263.893 4791)"><path class="c" d="M28.339,29.907a15.264,15.264,0,0,1-3.754-4.581,1.016,1.016,0,0,1,0-1.107,21.2,21.2,0,0,1,1.448-1.611c.483-.554.858-1.057.7-1.512l-2.414-5.89c-.216-.4-.858-.453-1.609-.5a10.083,10.083,0,0,0-1.823.1c-1.072.353-3.272,3.071-3.539,5.036-.591,4.279,3.539,9.969,7.67,13.493,4.131,3.576,10.514,6.949,15.018,5.992,2.092-.453,4.775-2.718,4.989-3.777a4.7,4.7,0,0,0-.053-1.712c-.053-.7-.214-1.208-.646-1.409l-5.47-2.368c-.485-.252-.966-.05-1.448.5-.589.755-.86,1.057-1.556,1.863-.375.453-.644.755-1.072.8a3.388,3.388,0,0,1-1.234-.151,17.451,17.451,0,0,1-5.2-3.173ZM10.318,47.981l3.111-7.4A20.525,20.525,0,0,1,7.9,26.633c0-11.781,10.19-21.3,22.743-21.3s22.688,9.516,22.688,21.3S43.2,47.981,30.647,47.981a23.307,23.307,0,0,1-13.409-4.128ZM6.509,40.732,2.219,56.844,17.559,50.3a29.776,29.776,0,0,0,13.089,3.022c15.658,0,28.372-11.934,28.372-26.685C59.019,11.934,46.305,0,30.645,0,14.931,0,2.219,11.934,2.219,26.633a25.609,25.609,0,0,0,4.29,14.1Z" transform="translate(-2.219)"/></g></g></svg>