<svg xmlns="http://www.w3.org/2000/svg" xmlns:xlink="http://www.w3.org/1999/xlink" width="106" height="106" viewBox="0 0 106 106"><defs><clipPath id="a"><rect width="106" height="106" transform="translate(113 1363)" fill="#ff4900" stroke="#707070" stroke-width="1"/></clipPath></defs><g transform="translate(-113 -1363)" clip-path="url(#a)"><g transform="translate(113 1363)"><path d="M97.513,68.322a10.369,10.369,0,0,0-8.281-10.144V47a3.106,3.106,0,0,0-4.2-2.908l-5.927,2.223A36.206,36.206,0,0,0,65.3,37.347a20.7,20.7,0,1,0-24.6,0,36.209,36.209,0,0,0-13.808,8.965l-5.927-2.223A3.106,3.106,0,0,0,16.769,47V58.178a10.353,10.353,0,0,0,0,20.287V90.475a3.106,3.106,0,0,0,2.015,2.908L51.909,105.8a3.141,3.141,0,0,0,2.181,0L87.216,93.382a3.106,3.106,0,0,0,2.015-2.908V78.465A10.369,10.369,0,0,0,97.513,68.322ZM38.507,20.7A14.493,14.493,0,1,1,53,35.2,14.509,14.509,0,0,1,38.507,20.7ZM53,41.407a29.973,29.973,0,0,1,19.648,7.328L53,56.1,33.352,48.735A29.974,29.974,0,0,1,53,41.407ZM14.7,68.322a4.145,4.145,0,0,1,4.141-4.141h2.07v8.281h-2.07A4.145,4.145,0,0,1,14.7,68.322ZM22.98,78.569A5.185,5.185,0,0,0,27.12,73.5V63.146a5.185,5.185,0,0,0-4.141-5.072v-6.6L49.894,61.571V98.416L22.98,88.323ZM56.105,98.416V61.571L83.02,51.478v6.6a5.185,5.185,0,0,0-4.141,5.072V73.5A5.185,5.185,0,0,0,83.02,78.57v9.753ZM87.161,72.463h-2.07V64.181h2.07a4.141,4.141,0,0,1,0,8.281Z" fill="#ff4900"/></g></g></svg>