<svg xmlns="http://www.w3.org/2000/svg" xmlns:xlink="http://www.w3.org/1999/xlink" width="400" height="400" viewBox="0 0 400 400"><defs><style>.a{fill:#ffb301;}.a,.c,.d,.e,.f,.g,.h,.i,.j{stroke:#707070;}.b{clip-path:url(#a);}.c{fill:#ffce09;}.c,.d,.e,.f,.g,.h,.i,.j{stroke-width:0.781px;}.d{fill:#9b772e;}.e{fill:#e3085c;}.f{fill:#ffac8c;}.g{fill:#e0734a;}.h{fill:#ff8354;}.i{fill:#ffe500;}.j{fill:#e9d313;}.k{fill:#fff;font-size:42px;font-family:FranklinGothic-Medium, Franklin Gothic;font-weight:500;}</style><clipPath id="a"><rect class="a" width="400" height="400" transform="translate(760 4879)"/></clipPath></defs><g transform="translate(-760 -4886)"><g transform="translate(760 4886)"><g class="b" transform="translate(-760 -4879)"><g transform="translate(760.001 4879)"><path class="c" d="M378.5,199.5c0,98.8-80.2,179-179,179s-178-80.2-178-179a177.369,177.369,0,0,1,178-178C298.3,21.5,378.5,100.7,378.5,199.5Zm0,0"/><path class="d" d="M199.5,32.5c96.972,0,176.11,76.73,179,173,.055-1.816,0-4.169,0-6,0-98.8-80.2-178-179-178a177.369,177.369,0,0,0-178,178c0,1.831-.055,4.184,0,6A177.812,177.812,0,0,1,199.5,32.5Zm0,0"/><path class="d" d="M199.5,367.5a177.811,177.811,0,0,1-178-173c-.055,1.819,0,3.172,0,5,0,98.806,79.2,179,178,179s179-80.195,179-179c0-1.828.055-3.181,0-5C375.609,290.772,296.471,367.5,199.5,367.5Zm0,0"/><path class="d" d="M199.5,53.5l22-15,16,20,25-9,11,24,26-3,4,26,26,4-3,26,24,11-9,25,20,16-15,21,15,22-20,16,9,25-24,11,3,26-26,4-4,26-26-3-11,24-25-9-16,20-22-15-21,15-16-20-25,9-11-24-26,3-4-26-26-4,3-26-24-11,9-25-20-16,15-22-15-21,20-16-9-25,24-11-3-26,26-4,4-26,26,3,11-24,25,9,16-20Zm0,0"/><path class="c" d="M341.5,199.5c0,78.1-63.906,142-142,142s-141-63.9-141-142a140.717,140.717,0,0,1,141-141C277.593,58.5,341.5,121.406,341.5,199.5Zm0,0"/><path class="e" d="M380.5,202.5a6.2,6.2,0,0,1,0-5l19-48c1.965-5.045-1.583-11-7-11h-130l12-64c.54-3-2.812-5.124-5-3l-34,32-33-56a2.792,2.792,0,0,0-5,0l-33,56-34-32c-2.188-2.121-5.537,0-5,3l12,64H7.5c-5.414,0-8.962,5.952-7,11l19,48a6.224,6.224,0,0,1,0,5l-19,48c-1.965,5.044,1.583,11,7,11h385c5.417,0,8.962-5.955,7-11Zm0,0"/><path class="f" d="M260.5,149.5h132a7.993,7.993,0,0,1,6,3l1-3c1.965-5.048-1.583-11-7-11h-130Zm0,0"/><path class="f" d="M1.5,152.5a8,8,0,0,1,6-3h132l-2-11H7.5c-5.414,0-8.962,5.952-7,11Zm0,0"/><path class="f" d="M127.5,85.5c1.065-.442,2-.973,3,0l34,32,33-56a2.792,2.792,0,0,1,5,0l33,56,34-32c1-.97,1.932-.442,3,0l2-11a9.935,9.935,0,0,0,0-1,3.052,3.052,0,0,0,0-1,3.24,3.24,0,0,0-3-2c-.635-.027-1.414.594-2,1-.146.1.137-.131,0,0l-34,32-33-56c-.153-.259.2-.8,0-1s-.765.128-1,0a3.1,3.1,0,0,0-3,0c-.232.128-.8-.192-1,0s.153.741,0,1l-33,56-34-32c-.137-.131.146.1,0,0-.586-.406-1.365-1.027-2-1a3.243,3.243,0,0,0-3,2,3.228,3.228,0,0,0,0,1c0,.177-.034.811,0,1Zm0,0"/><path class="g" d="M398.5,247.5a7.983,7.983,0,0,1-6,3H7.5a7.988,7.988,0,0,1-6-3l-1,3c-1.965,5.045,1.583,11,7,11h385c5.417,0,8.962-5.955,7-11Zm0,0"/><path class="e" d="M199.5,317.5l15,8c1.782.937,4.339-.013,4-2l-3-17,12-13c1.44-1.407,1-3.707-1-4l-17-2-8-16a2.154,2.154,0,0,0-4,0l-8,16-17,2c-1.993.29-2.443,2.593-1,4l12,13-3,17c-.342,1.987,2.218,2.937,4,2Zm0,0"/><path class="h" d="M140.5,296.5l8,5c.995.525,2.189-.892,2-2l-2-9,7-7c.8-.784,1.114-1.838,0-2l-10-2-4-8a1.867,1.867,0,0,0-3,0l-4,8-9,2c-1.111.162-1.806,1.216-1,2l7,7-2,9c-.192,1.108,1.005,2.525,2,2Zm0,0"/><path class="h" d="M258.5,296.5l9,5c.992.525,2.189-.892,2-2l-2-9,7-7c.806-.784.114-1.838-1-2l-9-2-4-8a1.867,1.867,0,0,0-3,0l-4,8-10,2c-1.111.162-.8,1.216,0,2l7,7-2,9c-.189,1.108,1.005,2.525,2,2Zm0,0"/><path class="i" d="M58.5,54.5l23-7a5.287,5.287,0,0,0,0-10l-23-7a7.259,7.259,0,0,1-4-4l-7-23a5.288,5.288,0,0,0-10,0l-7,23a7.259,7.259,0,0,1-4,4l-23,7a5.287,5.287,0,0,0,0,10l23,7a7.259,7.259,0,0,1,4,4l7,23a5.288,5.288,0,0,0,10,0l7-23A7.249,7.249,0,0,1,58.5,54.5Zm0,0"/><path class="j" d="M347.5,377.5l18-6a3.626,3.626,0,0,0,0-7l-18-6a2.538,2.538,0,0,1-2-2l-6-18a3.626,3.626,0,0,0-7,0l-6,18a2.546,2.546,0,0,1-2,2l-18,6a3.626,3.626,0,0,0,0,7l18,6a2.546,2.546,0,0,1,2,2l6,18a3.626,3.626,0,0,0,7,0l6-18A2.53,2.53,0,0,1,347.5,377.5Zm0,0"/><text class="k" transform="translate(199.999 190)"><tspan x="-125.928" y="0">APRENDIZAJE</tspan><tspan x="-132.819" y="47">GARANTIZADO</tspan></text></g></g></g></g></svg>