<svg xmlns="http://www.w3.org/2000/svg" xmlns:xlink="http://www.w3.org/1999/xlink" width="77" height="77" viewBox="0 0 77 77"><defs><style>.a{fill:#fff;stroke:#707070;}.b{clip-path:url(#a);}.c{fill:#bfbfbf;}.d{fill:#67dde0;}.e{fill:#aaa;}.f{fill:#61f4ff;}.g{fill:none;stroke:#4d5152;stroke-miterlimit:10;stroke-width:2.655px;}</style><clipPath id="a"><rect class="a" width="77" height="77" transform="translate(1136 624)"/></clipPath></defs><g class="b" transform="translate(-1136 -624)"><g transform="translate(1133.345 621.345)"><path class="c" d="M14.6,25.224s0-5.31,5.31-5.31H62.4s5.31,0,5.31,5.31V51.776s0,5.31-5.31,5.31H19.914s-5.31,0-5.31-5.31Z"/><circle class="d" cx="6.638" cy="6.638" r="6.638" transform="translate(19.914 27.879)"/><circle class="d" cx="6.638" cy="6.638" r="6.638" transform="translate(49.121 27.879)"/><path class="e" d="M27.879,57.086V49.121a2.6,2.6,0,0,1,2.655-2.655H51.776a2.6,2.6,0,0,1,2.655,2.655v7.966"/><path class="e" d="M14.6,27.879H11.948a2.6,2.6,0,0,0-2.655,2.655V46.466a2.6,2.6,0,0,0,2.655,2.655H14.6Z"/><path class="e" d="M67.707,27.879h2.655a2.6,2.6,0,0,1,2.655,2.655V46.466a2.6,2.6,0,0,1-2.655,2.655H67.707Z"/><rect class="c" width="21.241" height="5.31" transform="translate(30.534 57.086)"/><path class="e" d="M11.948,79.655V70.362c0-7.966,7.966-7.966,7.966-7.966H62.4s7.966,0,7.966,7.966v9.293"/><path class="f" d="M22.569,79.655V73.017a2.6,2.6,0,0,1,2.655-2.655H57.086a2.6,2.6,0,0,1,2.655,2.655v6.638"/><line class="g" y2="5.31" transform="translate(41.155 13.276)"/><circle class="d" cx="5.31" cy="5.31" r="5.31" transform="translate(35.845 3.983)"/><path class="g" d="M14.6,25.224s0-5.31,5.31-5.31H62.4s5.31,0,5.31,5.31V51.776s0,5.31-5.31,5.31H19.914s-5.31,0-5.31-5.31Z"/><circle class="g" cx="6.638" cy="6.638" r="6.638" transform="translate(19.914 27.879)"/><circle class="g" cx="6.638" cy="6.638" r="6.638" transform="translate(49.121 27.879)"/><path class="g" d="M27.879,57.086V49.121a2.6,2.6,0,0,1,2.655-2.655H51.776a2.6,2.6,0,0,1,2.655,2.655v7.966"/><path class="g" d="M14.6,27.879H11.948a2.6,2.6,0,0,0-2.655,2.655V46.466a2.6,2.6,0,0,0,2.655,2.655H14.6Z"/><path class="g" d="M67.707,27.879h2.655a2.6,2.6,0,0,1,2.655,2.655V46.466a2.6,2.6,0,0,1-2.655,2.655H67.707Z"/><rect class="g" width="21.241" height="5.31" transform="translate(30.534 57.086)"/><path class="g" d="M11.948,79.655V70.362c0-7.966,7.966-7.966,7.966-7.966H62.4s7.966,0,7.966,7.966v9.293"/><path class="g" d="M22.569,79.655V73.017a2.6,2.6,0,0,1,2.655-2.655H57.086a2.6,2.6,0,0,1,2.655,2.655v6.638"/><line class="g" x2="37.172" transform="translate(22.569 75.672)"/><line class="g" y2="5.31" transform="translate(41.155 13.276)"/><circle class="g" cx="5.31" cy="5.31" r="5.31" transform="translate(35.845 3.983)"/></g></g></svg>