<svg xmlns="http://www.w3.org/2000/svg" xmlns:xlink="http://www.w3.org/1999/xlink" width="61" height="57" viewBox="0 0 61 57"><defs><style>.a{fill:#fff;stroke:#707070;}.b{clip-path:url(#a);}.c{fill:none;}.d{fill-rule:evenodd;fill:url(#b);}</style><clipPath id="a"><rect class="a" width="61" height="57" transform="translate(159 4790)"/></clipPath><radialGradient id="b" cx="9.11" cy="57.675" r="82.769" gradientTransform="translate(0.529 6.501) scale(0.942 0.887)" gradientUnits="userSpaceOnUse"><stop offset="0" stop-color="#ffb140"/><stop offset="0.256" stop-color="#ff5445"/><stop offset="0.599" stop-color="#fc2b82"/><stop offset="1" stop-color="#8e40b7"/></radialGradient></defs><g class="b" transform="translate(-159 -4790)"><g transform="translate(159 4790)"><rect class="c" width="61" height="57" transform="translate(0 0)"/><path class="d" d="M50.455,13.4a3.668,3.668,0,0,1-7.322,0,3.668,3.668,0,0,1,7.322,0ZM30.508,38.317c-5.616,0-10.169-4.289-10.169-9.579s4.553-9.579,10.169-9.579,10.169,4.289,10.169,9.579S36.125,38.317,30.508,38.317Zm0-24.336c-8.652,0-15.667,6.607-15.667,14.757s7.014,14.757,15.667,14.757,15.667-6.607,15.667-14.757S39.161,13.98,30.508,13.98Zm0-8.8c8.146,0,9.111.029,12.328.167a17.786,17.786,0,0,1,5.665.99,9.529,9.529,0,0,1,3.508,2.15,8.866,8.866,0,0,1,2.282,3.3,15.107,15.107,0,0,1,1.051,5.336c.147,3.03.178,3.939.178,11.613s-.031,8.582-.178,11.612a15.1,15.1,0,0,1-1.051,5.336,8.873,8.873,0,0,1-2.282,3.3,9.522,9.522,0,0,1-3.508,2.15,17.8,17.8,0,0,1-5.665.99c-3.217.138-4.182.167-12.328.167s-9.112-.029-12.328-.167a17.786,17.786,0,0,1-5.665-.99,9.529,9.529,0,0,1-3.508-2.15,8.872,8.872,0,0,1-2.282-3.3,15.107,15.107,0,0,1-1.051-5.336C5.527,37.32,5.5,36.411,5.5,28.739s.031-8.582.178-11.613A15.1,15.1,0,0,1,6.725,11.79a8.873,8.873,0,0,1,2.282-3.3,9.522,9.522,0,0,1,3.508-2.15,17.8,17.8,0,0,1,5.665-.99C21.4,5.207,22.362,5.178,30.508,5.178Zm0-5.178C22.223,0,21.184.033,17.93.173a23.6,23.6,0,0,0-7.405,1.336,15.074,15.074,0,0,0-5.4,3.315A14.027,14.027,0,0,0,1.6,9.914,20.031,20.031,0,0,0,.184,16.889C.035,19.954,0,20.933,0,28.738s.035,8.783.184,11.848A20.031,20.031,0,0,0,1.6,47.562a14.027,14.027,0,0,0,3.519,5.09,15.08,15.08,0,0,0,5.4,3.315A23.605,23.605,0,0,0,17.93,57.3c3.254.14,4.293.173,12.579.173s9.325-.033,12.579-.173a23.605,23.605,0,0,0,7.405-1.336,15.08,15.08,0,0,0,5.4-3.315,14.033,14.033,0,0,0,3.519-5.09,20.031,20.031,0,0,0,1.418-6.976c.148-3.065.184-4.044.184-11.848s-.035-8.783-.184-11.848a20.031,20.031,0,0,0-1.418-6.976A14.033,14.033,0,0,0,55.9,4.823a15.08,15.08,0,0,0-5.4-3.315A23.606,23.606,0,0,0,43.087.173C39.833.033,38.794,0,30.508,0Z" transform="translate(0 0)"/></g></g></svg>