<svg xmlns="http://www.w3.org/2000/svg" xmlns:xlink="http://www.w3.org/1999/xlink" width="84" height="62" viewBox="0 0 84 62"><defs><style>.a{fill:#fff;stroke:#707070;}.b{clip-path:url(#a);}</style><clipPath id="a"><rect class="a" width="84" height="62" transform="translate(71.288 5294.91)"/></clipPath></defs><g class="b" transform="translate(-71.288 -5294.91)"><g transform="translate(82.176 5295)"><g transform="translate(16.516 7.255)"><path d="M29.493,5.977c-7.969,0-14.452,5.7-14.452,12.7a12.37,12.37,0,0,0,6.674,10.7,16.529,16.529,0,0,0,14.373.69A1.729,1.729,0,0,0,37.1,27.654a2.192,2.192,0,0,0-2.738-.89,11.988,11.988,0,0,1-10.42-.448,8.841,8.841,0,0,1-4.772-7.643c0-5,4.631-9.069,10.323-9.069s10.323,4.068,10.323,9.069a2.084,2.084,0,0,1-4.129.028c0-.009,0-.018,0-.028,0-3-2.778-5.441-6.194-5.441S23.3,15.673,23.3,18.673s2.778,5.441,6.194,5.441a6.671,6.671,0,0,0,4.129-1.39,6.67,6.67,0,0,0,4.129,1.39c3.415,0,6.194-2.441,6.194-5.441C43.945,11.672,37.462,5.977,29.493,5.977Zm2.036,12.987a2,2,0,0,1-2.036,1.523,1.954,1.954,0,0,1-2.065-1.814,1.954,1.954,0,0,1,2.065-1.814,1.99,1.99,0,0,1,2.05,1.606A1.6,1.6,0,0,0,31.528,18.964Z" transform="translate(-15.041 -5.977)"/></g><g transform="translate(0)"><path d="M65.025,23.818a1.721,1.721,0,0,0-.6-1.28l-7.653-6.724v-14A1.951,1.951,0,0,0,54.7,0H13.411a1.951,1.951,0,0,0-2.065,1.814v14L3.693,22.538l-.02.02a1.713,1.713,0,0,0-.584,1.26s0,0,0,0V56.469c0,3,2.782,5.441,6.194,5.441H58.831c3.419,0,6.194-2.443,6.194-5.441V23.822S65.025,23.819,65.025,23.818Zm-8.258-2.873,3.274,2.876L56.766,26.7ZM15.475,16.566h0V3.628H52.637V16.565h0V30.325l-11.178,9.82H26.653l-11.178-9.82Zm-4.129,4.378V26.7L8.072,23.821ZM7.217,55.718V28.2L22.878,41.959Zm2.92,2.565,16.516-14.51H41.459l16.516,14.51ZM60.9,55.718,45.234,41.959,60.9,28.2Z" transform="translate(-3.088)"/></g></g></g></svg>